<svg
    width="199"
    height="44"
    viewBox="0 0 199 44"
    fill="none"
    xmlns="http://www.w3.org/2000/svg"
>
    <path
        d="M10.0755 14.2955C9.20284 14.2955 8.55204 14.4811 8.1231 14.8522C7.70896 15.2233 7.50189 15.6761 7.50189 16.2105C7.50189 16.5223 7.56105 16.8192 7.67938 17.1012C7.81249 17.3833 8.09352 17.6356 8.52246 17.8583C8.96619 18.081 9.65396 18.2814 10.5858 18.4595C13.3073 18.9197 15.378 19.5358 16.798 20.3077C18.2179 21.0796 19.1867 21.9852 19.7044 23.0243C20.2369 24.0486 20.5031 25.2213 20.5031 26.5425C20.5031 28.9474 19.6674 30.8327 17.996 32.1984C16.3247 33.5641 13.862 34.247 10.608 34.247C9.49866 34.247 8.60381 34.1579 7.92343 33.9798C7.25783 33.8016 6.72536 33.6235 6.32601 33.4453C5.92665 33.2672 5.56428 33.1781 5.23888 33.1781C4.89868 33.1781 4.60287 33.2672 4.35142 33.4453C4.09998 33.6235 3.84853 33.8016 3.59708 33.9798C3.36043 34.1579 3.06461 34.247 2.70963 34.247C2.33986 34.247 2.06623 34.1431 1.88873 33.9352C1.71124 33.7274 1.54115 33.3563 1.37845 32.8219L0.246944 28.747C0.0102893 27.9899 -0.0562697 27.3961 0.0472666 26.9656C0.150803 26.5202 0.424435 26.2085 0.868162 26.0304C1.32668 25.8671 1.72603 25.8671 2.06623 26.0304C2.40642 26.1788 2.73182 26.4906 3.04243 26.9656C3.7376 27.9899 4.45496 28.836 5.1945 29.504C5.93405 30.1721 6.71057 30.6694 7.52407 30.996C8.33757 31.3225 9.17326 31.4858 10.0311 31.4858C11.0073 31.4858 11.7395 31.3003 12.2276 30.9292C12.7305 30.558 12.9819 30.0607 12.9819 29.4373C12.9819 29.0513 12.8784 28.7173 12.6713 28.4352C12.479 28.1383 12.0723 27.8711 11.4511 27.6336C10.8298 27.3961 9.89801 27.166 8.65558 26.9433C6.52569 26.5425 4.83213 25.9858 3.5749 25.2733C2.33246 24.5459 1.43761 23.6552 0.890348 22.6012C0.343085 21.5472 0.069453 20.3225 0.069453 18.9271C0.069453 17.4278 0.468808 16.1289 1.26752 15.0304C2.08102 13.9319 3.17554 13.0783 4.5511 12.4696C5.94144 11.861 7.52407 11.5567 9.29898 11.5567C10.4527 11.5567 11.3623 11.6532 12.0279 11.8462C12.7083 12.0243 13.2555 12.2099 13.6697 12.4028C14.0986 12.581 14.5128 12.67 14.9121 12.67C15.2967 12.67 15.6295 12.581 15.9105 12.4028C16.1915 12.2099 16.4652 12.0243 16.7314 11.8462C17.0124 11.6532 17.3304 11.5567 17.6854 11.5567C17.996 11.5567 18.2623 11.6754 18.4841 11.913C18.706 12.1356 18.8613 12.5364 18.95 13.1154L19.66 16.9899C19.7783 17.7173 19.7857 18.2665 19.6822 18.6377C19.5787 19.0088 19.3198 19.2834 18.9057 19.4615C18.4619 19.6397 18.0626 19.6323 17.7076 19.4393C17.3674 19.2463 17.0198 18.8974 16.6649 18.3927C15.6147 16.8637 14.5202 15.8023 13.3813 15.2085C12.2572 14.5999 11.1552 14.2955 10.0755 14.2955Z"
        fill="#131C47"
    />
    <path
        d="M35.6706 33.6235H32.2983C31.677 33.6235 31.1372 33.4825 30.6787 33.2004C30.2349 32.9035 29.8873 32.4062 29.6359 31.7085L24.0449 16.4332C23.8527 15.8988 23.6826 15.5499 23.5347 15.3866C23.3867 15.2085 23.2314 15.0823 23.0687 15.0081L22.6028 14.7854C22.307 14.637 22.0925 14.4663 21.9594 14.2733C21.8411 14.0803 21.7819 13.8279 21.7819 13.5162C21.7819 13.1005 21.9224 12.7814 22.2035 12.5587C22.4845 12.336 22.8617 12.2247 23.335 12.2247H34.6056C35.0642 12.2247 35.4339 12.336 35.715 12.5587C35.996 12.7814 36.1365 13.1005 36.1365 13.5162C36.1365 13.8279 36.0552 14.0803 35.8925 14.2733C35.7298 14.4663 35.4635 14.6221 35.0938 14.7409L34.4725 14.919C34.1471 15.0229 33.9548 15.2456 33.8957 15.587C33.8365 15.9136 33.9696 16.5668 34.295 17.5466L38.0889 28.747L35.8259 30.6174L40.9953 16.6559L43.5911 18.3036L38.3551 31.8866C38.0741 32.5843 37.6896 33.052 37.2015 33.2895C36.7281 33.5121 36.2179 33.6235 35.6706 33.6235ZM50.7351 33.6235H47.4959C46.8895 33.6235 46.3496 33.475 45.8763 33.1781C45.4178 32.8812 45.0702 32.3914 44.8336 31.7085L39.531 16.4332C39.3387 15.8988 39.1686 15.5425 39.0207 15.3644C38.8728 15.1862 38.7175 15.0675 38.5548 15.0081L38.0889 14.7854C37.8079 14.637 37.6008 14.4663 37.4677 14.2733C37.3346 14.0803 37.268 13.8279 37.268 13.5162C37.268 12.6552 37.7931 12.2247 38.8432 12.2247H49.8255C50.8609 12.2247 51.3785 12.6552 51.3785 13.5162C51.3785 13.8279 51.2972 14.0877 51.1345 14.2955C50.9866 14.5034 50.7647 14.637 50.4689 14.6964L49.4927 14.8745C49.1525 14.9339 48.9602 15.1565 48.9159 15.5425C48.8863 15.9285 49.0268 16.5891 49.3374 17.5243L52.9316 28.747L50.8683 30.6174L54.7287 18.17C55.1132 17.0121 55.2833 16.2105 55.239 15.7652C55.1946 15.305 54.9801 15.0229 54.5956 14.919L53.9743 14.7409C53.6194 14.6221 53.3531 14.4663 53.1756 14.2733C53.0129 14.0803 52.9316 13.8279 52.9316 13.5162C52.9316 13.1005 53.0647 12.7814 53.3309 12.5587C53.612 12.336 53.9891 12.2247 54.4624 12.2247H59.6097C60.0978 12.2247 60.475 12.336 60.7412 12.5587C61.0222 12.7814 61.1627 13.1005 61.1627 13.5162C61.1627 13.7834 61.0962 14.0209 60.9631 14.2287C60.8447 14.4366 60.6007 14.6073 60.2309 14.7409L59.7872 14.8968C59.5209 15.0007 59.2695 15.2827 59.0328 15.7429C58.811 16.1883 58.5225 16.9157 58.1676 17.9251L53.4197 31.8866C53.183 32.5695 52.8133 33.0297 52.3104 33.2672C51.8075 33.5047 51.2824 33.6235 50.7351 33.6235Z"
        fill="#131C47"
    />
    <path
        d="M75.7076 30.6174V30.1053H74.9977V15.6538C74.9977 15.0897 74.8424 14.637 74.5317 14.2955C74.2359 13.9541 73.8292 13.7834 73.3115 13.7834C72.9269 13.7834 72.5867 13.8799 72.2909 14.0729C72.0099 14.251 71.8694 14.5034 71.8694 14.83V17.2571C71.8694 18.4892 71.4478 19.4541 70.6048 20.1518C69.7617 20.8347 68.5562 21.1761 66.9884 21.1761C65.6572 21.1761 64.6662 20.8941 64.0154 20.33C63.3646 19.751 63.0392 18.9494 63.0392 17.9251C63.0392 16.9602 63.4755 15.9879 64.3482 15.0081C65.2356 14.0283 66.5594 13.2193 68.3196 12.581C70.0945 11.9278 72.3205 11.6012 74.9977 11.6012C78.1333 11.6012 80.4555 12.1802 81.9642 13.3381C83.4876 14.4811 84.2494 16.0472 84.2494 18.0364V28.6802C84.2494 28.9771 84.3159 29.2146 84.4491 29.3927C84.597 29.5709 84.8188 29.6599 85.1146 29.6599C85.3661 29.6599 85.5658 29.5931 85.7137 29.4595C85.8764 29.3259 86.0243 29.1923 86.1574 29.0587C86.2609 28.9548 86.3645 28.8657 86.468 28.7915C86.5715 28.7173 86.6973 28.6802 86.8452 28.6802C87.0818 28.6802 87.2519 28.7692 87.3555 28.9474C87.4738 29.1255 87.533 29.3556 87.533 29.6377C87.533 30.276 87.2963 30.9514 86.823 31.664C86.3645 32.3765 85.6619 32.9852 84.7153 33.4899C83.7835 33.9946 82.6224 34.247 81.232 34.247C79.605 34.247 78.2738 33.9055 77.2385 33.2227C76.2179 32.525 75.7076 31.6565 75.7076 30.6174ZM62.2183 28.8806C62.2183 26.8617 63.1279 25.2659 64.9472 24.0931C66.7665 22.9204 69.3401 22.334 72.6681 22.334C73.526 22.334 74.2729 22.3934 74.9089 22.5121C75.5597 22.6309 76.0848 22.8016 76.4841 23.0243L75.752 24.8947C75.4414 24.7166 75.1456 24.5904 74.8645 24.5162C74.5983 24.442 74.3025 24.4049 73.9771 24.4049C73.2523 24.4049 72.6755 24.6498 72.2466 25.1397C71.8324 25.6296 71.6253 26.3347 71.6253 27.2551C71.6253 28.22 71.8324 28.9548 72.2466 29.4595C72.6607 29.9642 73.208 30.2166 73.8883 30.2166C74.3173 30.2166 74.7166 30.1201 75.0864 29.9271C75.471 29.7193 75.7594 29.4744 75.9517 29.1923L76.462 30.9292C75.7668 31.9831 74.7462 32.7996 73.4002 33.3785C72.0543 33.9575 70.6122 34.247 69.0739 34.247C67.018 34.247 65.3614 33.7348 64.1041 32.7105C62.8469 31.6862 62.2183 30.4096 62.2183 28.8806Z"
        fill="#131C47"
    />
    <path
        d="M99.7424 13.4939V15.5202L100.186 16.3441V39.4352C100.186 40.0142 100.223 40.4224 100.297 40.6599C100.386 40.9123 100.541 41.0904 100.763 41.1943L101.273 41.417C101.599 41.5506 101.835 41.7287 101.983 41.9514C102.131 42.1741 102.205 42.4265 102.205 42.7085C102.205 43.1093 102.072 43.4211 101.806 43.6437C101.554 43.8812 101.14 44 100.563 44H90.4241C89.8473 44 89.4257 43.8812 89.1595 43.6437C88.908 43.4211 88.7823 43.1093 88.7823 42.7085C88.7823 42.4265 88.8563 42.1741 89.0042 41.9514C89.1521 41.7287 89.3887 41.5506 89.7141 41.417L90.2244 41.1943C90.4463 41.0904 90.6016 40.9123 90.6903 40.6599C90.7791 40.4224 90.8235 40.0142 90.8235 39.4352V18.3927C90.8235 17.9325 90.7569 17.6059 90.6238 17.413C90.5055 17.22 90.3206 17.0864 90.0691 17.0121L89.581 16.8563C89.2704 16.7672 89.0486 16.6336 88.9154 16.4555C88.7823 16.2625 88.7158 16.0175 88.7158 15.7206C88.7158 15.3792 88.8045 15.1194 88.982 14.9413C89.1743 14.7632 89.5293 14.5553 90.0469 14.3178L94.6617 12.3806C95.3717 12.0688 95.9559 11.8536 96.4144 11.7348C96.8729 11.6161 97.2871 11.5567 97.6569 11.5567C98.3668 11.5567 98.8919 11.7422 99.2321 12.1134C99.5723 12.4696 99.7424 12.9298 99.7424 13.4939ZM98.5443 19.5951L97.0135 18.1032C98.2707 16.0695 99.6758 14.4737 101.229 13.3158C102.797 12.1431 104.594 11.5567 106.62 11.5567C108.365 11.5567 109.933 12.0094 111.324 12.915C112.714 13.8057 113.809 15.0452 114.607 16.6336C115.406 18.222 115.805 20.0628 115.805 22.1559C115.805 24.5756 115.31 26.691 114.319 28.502C113.343 30.3131 111.997 31.7233 110.281 32.7328C108.58 33.7422 106.657 34.247 104.512 34.247C102.738 34.247 101.192 33.8684 99.8755 33.1113C98.5591 32.3543 97.4202 31.2112 96.4588 29.6822L98.8106 28.079C99.4762 29.0439 100.105 29.7341 100.696 30.1498C101.303 30.5506 101.961 30.751 102.671 30.751C103.366 30.751 103.973 30.4987 104.49 29.9939C105.023 29.4892 105.429 28.6802 105.711 27.5668C106.006 26.4386 106.154 24.9541 106.154 23.1134C106.154 21.4211 105.999 20.0628 105.688 19.0385C105.393 18.0142 104.986 17.2719 104.468 16.8117C103.965 16.3367 103.374 16.0992 102.693 16.0992C101.88 16.0992 101.133 16.3738 100.452 16.9231C99.7868 17.4723 99.1507 18.363 98.5443 19.5951Z"
        fill="#131C47"
    />
    <path
        d="M129.079 13.4939V15.5202L129.522 16.3441V39.4352C129.522 40.0142 129.559 40.4224 129.633 40.6599C129.722 40.9123 129.877 41.0904 130.099 41.1943L130.609 41.417C130.935 41.5506 131.172 41.7287 131.319 41.9514C131.467 42.1741 131.541 42.4265 131.541 42.7085C131.541 43.1093 131.408 43.4211 131.142 43.6437C130.891 43.8812 130.476 44 129.9 44H119.76C119.184 44 118.762 43.8812 118.496 43.6437C118.244 43.4211 118.119 43.1093 118.119 42.7085C118.119 42.4265 118.193 42.1741 118.34 41.9514C118.488 41.7287 118.725 41.5506 119.05 41.417L119.561 41.1943C119.783 41.0904 119.938 40.9123 120.027 40.6599C120.115 40.4224 120.16 40.0142 120.16 39.4352V18.3927C120.16 17.9325 120.093 17.6059 119.96 17.413C119.842 17.22 119.657 17.0864 119.405 17.0121L118.917 16.8563C118.607 16.7672 118.385 16.6336 118.252 16.4555C118.119 16.2625 118.052 16.0175 118.052 15.7206C118.052 15.3792 118.141 15.1194 118.318 14.9413C118.511 14.7632 118.866 14.5553 119.383 14.3178L123.998 12.3806C124.708 12.0688 125.292 11.8536 125.751 11.7348C126.209 11.6161 126.623 11.5567 126.993 11.5567C127.703 11.5567 128.228 11.7422 128.568 12.1134C128.909 12.4696 129.079 12.9298 129.079 13.4939ZM127.881 19.5951L126.35 18.1032C127.607 16.0695 129.012 14.4737 130.565 13.3158C132.133 12.1431 133.93 11.5567 135.956 11.5567C137.702 11.5567 139.27 12.0094 140.66 12.915C142.05 13.8057 143.145 15.0452 143.944 16.6336C144.742 18.222 145.142 20.0628 145.142 22.1559C145.142 24.5756 144.646 26.691 143.655 28.502C142.679 30.3131 141.333 31.7233 139.617 32.7328C137.916 33.7422 135.993 34.247 133.849 34.247C132.074 34.247 130.528 33.8684 129.212 33.1113C127.895 32.3543 126.756 31.2112 125.795 29.6822L128.147 28.079C128.812 29.0439 129.441 29.7341 130.033 30.1498C130.639 30.5506 131.297 30.751 132.007 30.751C132.702 30.751 133.309 30.4987 133.827 29.9939C134.359 29.4892 134.766 28.6802 135.047 27.5668C135.343 26.4386 135.491 24.9541 135.491 23.1134C135.491 21.4211 135.335 20.0628 135.025 19.0385C134.729 18.0142 134.322 17.2719 133.804 16.8117C133.301 16.3367 132.71 16.0992 132.029 16.0992C131.216 16.0992 130.469 16.3738 129.789 16.9231C129.123 17.4723 128.487 18.363 127.881 19.5951Z"
        fill="#131C47"
    />
    <path
        d="M169.863 20.1741C169.863 21.1835 169.589 21.9703 169.042 22.5344C168.495 23.0837 167.711 23.3583 166.69 23.3583H153.512V21.1093H159.435C160.234 21.1093 160.634 20.7308 160.634 19.9737C160.634 18.0587 160.412 16.693 159.968 15.8765C159.539 15.0452 158.977 14.6296 158.282 14.6296C157.764 14.6296 157.298 14.83 156.884 15.2308C156.47 15.6167 156.145 16.2105 155.908 17.0121C155.671 17.8138 155.553 18.8306 155.553 20.0628C155.553 22.7794 156.159 24.7686 157.372 26.0304C158.585 27.2922 160.234 27.9231 162.32 27.9231C163.326 27.9231 164.228 27.8043 165.026 27.5668C165.84 27.3144 166.616 26.832 167.356 26.1194C167.77 25.7483 168.081 25.5034 168.288 25.3846C168.51 25.251 168.724 25.1842 168.931 25.1842C169.212 25.1842 169.419 25.3252 169.552 25.6073C169.7 25.8893 169.774 26.2382 169.774 26.6538C169.774 27.9899 169.323 29.2368 168.421 30.3947C167.534 31.5526 166.298 32.4879 164.716 33.2004C163.133 33.8981 161.284 34.247 159.169 34.247C156.921 34.247 154.895 33.8016 153.09 32.9109C151.3 32.0054 149.881 30.751 148.83 29.1478C147.795 27.5297 147.277 25.6518 147.277 23.5142C147.277 21.0945 147.751 18.9939 148.697 17.2126C149.659 15.4163 151.056 14.0283 152.891 13.0486C154.725 12.054 156.936 11.5567 159.524 11.5567C161.802 11.5567 163.71 11.9278 165.248 12.67C166.787 13.4123 167.94 14.4366 168.709 15.7429C169.479 17.0344 169.863 18.5115 169.863 20.1741Z"
        fill="#131C47"
    />
    <path
        d="M187.951 29.749L187.618 29.7267V6.8583C187.618 6.39811 187.559 6.07153 187.441 5.87854C187.323 5.67072 187.138 5.53711 186.886 5.47773L186.376 5.32186C186.08 5.21795 185.858 5.07692 185.71 4.89879C185.577 4.7058 185.511 4.46086 185.511 4.16397C185.511 3.82254 185.599 3.55533 185.777 3.36235C185.969 3.15452 186.324 2.9467 186.842 2.73887L191.9 0.823888C192.64 0.526992 193.232 0.319165 193.675 0.200406C194.134 0.0668021 194.578 0 195.006 0C195.642 0 196.131 0.185561 196.471 0.556682C196.811 0.912957 196.981 1.37314 196.981 1.93725V29.0587C196.981 29.6377 197.025 30.0533 197.114 30.3057C197.203 30.5432 197.358 30.7139 197.58 30.8178L198.068 31.0405C198.408 31.1741 198.645 31.3522 198.778 31.5749C198.926 31.7976 199 32.0499 199 32.332C199 32.7328 198.867 33.052 198.601 33.2895C198.349 33.5121 197.942 33.6235 197.38 33.6235H191.59C190.628 33.6235 189.778 33.2746 189.038 32.5769C188.314 31.8644 187.951 31.0256 187.951 30.0607V29.749ZM171.977 23.6255C171.977 21.2206 172.473 19.1127 173.464 17.3016C174.455 15.4757 175.8 14.0655 177.501 13.0709C179.202 12.0614 181.133 11.5567 183.292 11.5567C185.082 11.5567 186.627 11.9352 187.929 12.6923C189.245 13.4345 190.377 14.5702 191.324 16.0992L188.994 17.7024C188.328 16.7375 187.692 16.0547 187.086 15.6538C186.494 15.253 185.843 15.0526 185.134 15.0526C184.438 15.0526 183.825 15.305 183.292 15.8097C182.774 16.3144 182.368 17.1235 182.072 18.2368C181.791 19.3502 181.65 20.8347 181.65 22.6903C181.65 24.3677 181.798 25.7186 182.094 26.7429C182.405 27.7672 182.819 28.5169 183.336 28.9919C183.854 29.4669 184.446 29.7045 185.111 29.7045C185.925 29.7045 186.664 29.4298 187.33 28.8806C188.01 28.3313 188.646 27.4406 189.238 26.2085L190.769 27.6781C189.526 29.7119 188.121 31.3151 186.553 32.4879C184.986 33.6606 183.196 34.247 181.184 34.247C179.424 34.247 177.849 33.7942 176.459 32.8887C175.083 31.9831 173.989 30.7362 173.175 29.1478C172.376 27.5594 171.977 25.7186 171.977 23.6255Z"
        fill="#131C47"
    />
</svg>